# xmcd
#
# Track frame offsets: 
#        150
#        9550
#        20380
#        33273
#        43613
#        55207
#        67937
#        80080
#        92162
#        102085
#        110293
#        120574
#        130007
#        139460
#        149228
#        160655
#        171187
#        184777
#        198730
#        212095
#        223236
#        235588
#        248265
#        258100
#        267594
#        280450
#        290886
#        302108
#        313704
#        327882
#
# Disc length: 4509 seconds
#
# Revision: 2
# Processed by: cddbd v1.5.2PL0 Copyright (c) Steve Scherf et al.
# Submitted via: ExactAudioCopyFreeDBPlugin 1.0
#
DISCID=c1119b1e
DTITLE=Faron Young - The Classic Years - 1952-1962 - CD 05
DYEAR=1999
DGENRE=Country
TTITLE0=I'll Fly Away
TTITLE1=Mansion Over The Hilltop
TTITLE2=He Was There
TTITLE3=How Long Has It Been
TTITLE4=Beautiful Garden Of Prayer
TTITLE5=My Home Sweet Home
TTITLE6=Suppertime
TTITLE7=May The Good Lord Bless And Keep You
TTITLE8=What Can He Do
TTITLE9=He Knows Just What I Need
TTITLE10=When I've Learned Enough To Live I'll Be Old Enough To Die
TTITLE11=Now I Belong To Jesus
TTITLE12=I Won't Have To Cross Jordan Alone
TTITLE13=Traveling On
TTITLE14=My Wonderful Lord
TTITLE15=I Know Who Holds Tomorrow
TTITLE16=Where Could I Go {But To The Lord}
TTITLE17=God Bless God
TTITLE18=Don't Take Your Love From Me
TTITLE19=If I Had You
TTITLE20=Stay As Sweet As You Are
TTITLE21=My Darling, My Darling
TTITLE22=Who Wouldn't Love You
TTITLE23=I Can't Believe That You're In Love With Me
TTITLE24=The Object Of My Affection
TTITLE25=It All Depends On You
TTITLE26=Thank You For A Lovely Evening
TTITLE27=Everything I Have Is Yours
TTITLE28=The Nearness Of You
TTITLE29=Sweet And Lovely
EXTD=
EXTT0=
EXTT1=
EXTT2=
EXTT3=
EXTT4=
EXTT5=
EXTT6=
EXTT7=
EXTT8=
EXTT9=
EXTT10=
EXTT11=
EXTT12=
EXTT13=
EXTT14=
EXTT15=
EXTT16=
EXTT17=
EXTT18=
EXTT19=
EXTT20=
EXTT21=
EXTT22=
EXTT23=
EXTT24=
EXTT25=
EXTT26=
EXTT27=
EXTT28=
EXTT29=
PLAYORDER=
